<svg width="32" height="32" viewBox="0 0 32 32" fill="none" xmlns="http://www.w3.org/2000/svg">
<path d="M19.6893 0C24.2213 0 27.9423 3.39052 28.3329 7.71387H25.8573C25.477 4.73051 22.8672 2.41016 19.6893 2.41016C16.7903 2.41037 14.3646 4.34153 13.6727 6.94531C13.6645 6.94063 13.6566 6.93532 13.6483 6.93066C12.9557 6.53715 12.2012 6.22898 11.3856 6.00781C12.4654 2.53124 15.774 0.000208396 19.6893 0Z" fill="white"/>
<path d="M25.8462 5.3032C29.2448 5.3032 32 8.0013 32 11.3296C32 14.6578 29.2448 17.3559 25.8462 17.3559V14.9454C27.8854 14.9454 29.5385 13.3265 29.5385 11.3296C29.5385 9.3326 27.8854 7.71375 25.8462 7.71375V5.3032Z" fill="white"/>
<path d="M17.9912 10.3655H15.2168V8.37626H11.0996C9.20497 8.37626 7.63436 8.73462 6.38867 9.45048C5.1431 10.1663 4.21417 11.1851 3.60254 12.5071C2.9909 13.8292 2.68556 15.4037 2.68555 17.2298C2.68555 19.0413 2.9876 20.6009 3.5918 21.9085C4.19595 23.2232 5.09803 24.2317 6.29883 24.9329C7.49976 25.6415 8.99592 25.9954 10.7861 25.9954H15.2168V14.4632H17.9912V28.4065H10.6074C8.38458 28.4065 6.48174 27.9564 4.90039 27.0579C3.31925 26.1667 2.10746 24.8848 1.26465 23.2122C0.421787 21.5467 0 19.5526 0 17.2298C1.86467e-05 14.8924 0.425094 12.88 1.27539 11.1927C2.12574 9.51259 3.36413 8.21954 4.99023 7.31376C6.61625 6.41534 8.59282 5.96615 10.9199 5.9661H17.9912V10.3655ZM17.9912 13.4993H15.2168V11.2688H17.9912V13.4993Z" fill="#FF7518"/>
<path d="M18.6471 11.2697C21.1311 11.2697 22.9941 11.6914 24.2361 12.535C25.478 13.3687 26.099 14.6242 26.099 16.3014C26.099 17.5275 25.7485 18.5574 25.0474 19.3911C24.3462 20.2248 23.3546 20.7839 22.0726 21.0684C23.7553 21.2646 25.0524 21.8187 25.9638 22.7309C26.8753 23.6333 27.331 24.776 27.331 26.159C27.331 28.003 26.6449 29.44 25.2727 30.4699C23.9005 31.49 21.9925 32 19.5486 32H10.9548V29.2881H13.8244V29.7489H19.3983C21.1511 29.7489 22.4282 29.4302 23.2294 28.7926C24.0307 28.1551 24.4314 27.2036 24.4314 25.9383C24.4314 23.496 22.6786 22.2748 19.173 22.2748H17.9692V20.0826H18.6471C20.1796 20.0826 21.3214 19.8031 22.0726 19.244C22.8338 18.6751 23.2144 17.807 23.2144 16.6398C23.2144 15.5217 22.8238 14.7223 22.0425 14.2416C21.2613 13.761 20.1295 13.5207 18.6471 13.5207H13.8244V20.0826H13.8461V22.2748H13.8244V25.1299H10.9548V11.2697H18.6471ZM13.8244 28.3842H10.9548V26.0339H13.8244V28.3842Z" fill="#FF7518"/>
</svg>
